<mxfile host="app.diagrams.net" modified="2020-11-23T16:00:03.990Z" agent="5.0 (Windows NT 10.0; Win64; x64) AppleWebKit/537.36 (KHTML, like Gecko) Chrome/87.0.4280.66 Safari/537.36" etag="Fw-wecS3Ca20JFqbVVX4" version="13.10.1" type="gitlab">
  <diagram id="kgpKYQtTHZ0yAKxKKP6v" name="Page-1">
    <mxGraphModel dx="2432" dy="729" grid="0" gridSize="10" guides="1" tooltips="1" connect="1" arrows="1" fold="1" page="1" pageScale="1" pageWidth="1100" pageHeight="850" background="#ffffff" math="0" shadow="0" extFonts="Permanent Marker^https://fonts.googleapis.com/css?family=Permanent+Marker">
      <root>
        <mxCell id="0" />
        <mxCell id="1" parent="0" />
        <mxCell id="ORQ5gyo4uyK21jIdF5UX-24" value="Loop" style="shape=umlFrame;whiteSpace=wrap;html=1;width=110;height=30;" parent="1" vertex="1">
          <mxGeometry x="-979" y="109" width="915" height="560" as="geometry" />
        </mxCell>
        <mxCell id="ORQ5gyo4uyK21jIdF5UX-32" value="Loop" style="shape=umlFrame;whiteSpace=wrap;html=1;width=110;height=30;" parent="1" vertex="1">
          <mxGeometry x="-979" y="679" width="917" height="130" as="geometry" />
        </mxCell>
        <mxCell id="ORQ5gyo4uyK21jIdF5UX-5" value="Loop" style="shape=umlFrame;whiteSpace=wrap;html=1;width=110;height=30;" parent="1" vertex="1">
          <mxGeometry x="-959" y="422" width="861" height="240" as="geometry" />
        </mxCell>
        <mxCell id="3nuBFxr9cyL0pnOWT2aG-1" value=":Player" style="shape=umlLifeline;perimeter=lifelinePerimeter;container=1;collapsible=0;recursiveResize=0;rounded=0;shadow=0;strokeWidth=1;" parent="1" vertex="1">
          <mxGeometry x="-879" y="59" width="100" height="764" as="geometry" />
        </mxCell>
        <mxCell id="3nuBFxr9cyL0pnOWT2aG-5" value=": Jeu (Interface) " style="shape=umlLifeline;perimeter=lifelinePerimeter;container=1;collapsible=0;recursiveResize=0;rounded=0;shadow=0;strokeWidth=1;" parent="1" vertex="1">
          <mxGeometry x="-682" y="59" width="122" height="760" as="geometry" />
        </mxCell>
        <mxCell id="3nuBFxr9cyL0pnOWT2aG-6" value="" style="points=[];perimeter=orthogonalPerimeter;rounded=0;shadow=0;strokeWidth=1;" parent="3nuBFxr9cyL0pnOWT2aG-5" vertex="1">
          <mxGeometry x="57" y="390" width="10" height="200" as="geometry" />
        </mxCell>
        <mxCell id="OS-lwtIb6nHilkdtzgx4-7" value="" style="points=[];perimeter=orthogonalPerimeter;rounded=0;shadow=0;strokeWidth=1;" vertex="1" parent="3nuBFxr9cyL0pnOWT2aG-5">
          <mxGeometry x="56" y="80" width="10" height="215" as="geometry" />
        </mxCell>
        <mxCell id="3nuBFxr9cyL0pnOWT2aG-7" value="return" style="verticalAlign=bottom;endArrow=open;dashed=1;endSize=8;exitX=0;exitY=0.95;shadow=0;strokeWidth=1;" parent="1" source="3nuBFxr9cyL0pnOWT2aG-6" edge="1">
          <mxGeometry relative="1" as="geometry">
            <mxPoint x="-829" y="639" as="targetPoint" />
          </mxGeometry>
        </mxCell>
        <mxCell id="3nuBFxr9cyL0pnOWT2aG-8" value="Poser(Carte)" style="verticalAlign=bottom;endArrow=block;entryX=0;entryY=0;shadow=0;strokeWidth=1;exitX=0.49;exitY=0.151;exitDx=0;exitDy=0;exitPerimeter=0;" parent="1" target="3nuBFxr9cyL0pnOWT2aG-6" edge="1">
          <mxGeometry relative="1" as="geometry">
            <mxPoint x="-829" y="450.36400000000003" as="sourcePoint" />
          </mxGeometry>
        </mxCell>
        <mxCell id="ORQ5gyo4uyK21jIdF5UX-1" value=": Système + &#xa;Base de données " style="shape=umlLifeline;perimeter=lifelinePerimeter;container=1;collapsible=0;recursiveResize=0;rounded=0;shadow=0;strokeWidth=1;" parent="1" vertex="1">
          <mxGeometry x="-456" y="59" width="123" height="760" as="geometry" />
        </mxCell>
        <mxCell id="ORQ5gyo4uyK21jIdF5UX-2" value="" style="points=[];perimeter=orthogonalPerimeter;rounded=0;shadow=0;strokeWidth=1;" parent="ORQ5gyo4uyK21jIdF5UX-1" vertex="1">
          <mxGeometry x="57.5" y="505" width="10" height="40" as="geometry" />
        </mxCell>
        <mxCell id="ORQ5gyo4uyK21jIdF5UX-29" value="" style="html=1;points=[];perimeter=orthogonalPerimeter;" parent="ORQ5gyo4uyK21jIdF5UX-1" vertex="1">
          <mxGeometry x="56.5" y="647" width="10" height="80" as="geometry" />
        </mxCell>
        <mxCell id="OS-lwtIb6nHilkdtzgx4-2" value="" style="points=[];perimeter=orthogonalPerimeter;rounded=0;shadow=0;strokeWidth=1;" vertex="1" parent="ORQ5gyo4uyK21jIdF5UX-1">
          <mxGeometry x="56.5" y="90" width="10" height="132" as="geometry" />
        </mxCell>
        <mxCell id="OS-lwtIb6nHilkdtzgx4-17" value="" style="points=[];perimeter=orthogonalPerimeter;rounded=0;shadow=0;strokeWidth=1;" vertex="1" parent="ORQ5gyo4uyK21jIdF5UX-1">
          <mxGeometry x="56.5" y="246" width="10" height="39" as="geometry" />
        </mxCell>
        <mxCell id="ORQ5gyo4uyK21jIdF5UX-3" value="Pli.add(carte)" style="verticalAlign=bottom;endArrow=block;shadow=0;strokeWidth=1;entryX=0.1;entryY=0;entryDx=0;entryDy=0;entryPerimeter=0;" parent="1" target="ORQ5gyo4uyK21jIdF5UX-2" edge="1">
          <mxGeometry relative="1" as="geometry">
            <mxPoint x="-613" y="564" as="sourcePoint" />
            <mxPoint x="-408" y="565" as="targetPoint" />
          </mxGeometry>
        </mxCell>
        <mxCell id="ORQ5gyo4uyK21jIdF5UX-4" value="return" style="verticalAlign=bottom;endArrow=open;dashed=1;endSize=8;exitX=0.1;exitY=0.975;shadow=0;strokeWidth=1;exitDx=0;exitDy=0;exitPerimeter=0;" parent="1" source="ORQ5gyo4uyK21jIdF5UX-2" edge="1">
          <mxGeometry relative="1" as="geometry">
            <mxPoint x="-615" y="603" as="targetPoint" />
            <mxPoint x="-448" y="595" as="sourcePoint" />
          </mxGeometry>
        </mxCell>
        <mxCell id="ORQ5gyo4uyK21jIdF5UX-6" value="ref" style="shape=umlFrame;whiteSpace=wrap;html=1;" parent="1" vertex="1">
          <mxGeometry x="-718" y="465" width="340" height="70" as="geometry" />
        </mxCell>
        <mxCell id="ORQ5gyo4uyK21jIdF5UX-10" value="[Carte_valide]" style="text;html=1;strokeColor=none;fillColor=none;align=center;verticalAlign=middle;whiteSpace=wrap;rounded=0;" parent="1" vertex="1">
          <mxGeometry x="-768" y="575" width="180" height="20" as="geometry" />
        </mxCell>
        <mxCell id="ORQ5gyo4uyK21jIdF5UX-11" value="[Not Carte_valide]" style="text;html=1;strokeColor=none;fillColor=none;align=center;verticalAlign=middle;whiteSpace=wrap;rounded=0;" parent="1" vertex="1">
          <mxGeometry x="-992" y="460" width="180" height="20" as="geometry" />
        </mxCell>
        <mxCell id="ORQ5gyo4uyK21jIdF5UX-25" value="[Not Tour_finished]" style="text;html=1;strokeColor=none;fillColor=none;align=center;verticalAlign=middle;whiteSpace=wrap;rounded=0;" parent="1" vertex="1">
          <mxGeometry x="-1009" y="139" width="180" height="20" as="geometry" />
        </mxCell>
        <mxCell id="ORQ5gyo4uyK21jIdF5UX-30" value="Fin_Tour()" style="html=1;verticalAlign=bottom;endArrow=block;entryX=0;entryY=0;" parent="1" source="3nuBFxr9cyL0pnOWT2aG-5" target="ORQ5gyo4uyK21jIdF5UX-29" edge="1">
          <mxGeometry relative="1" as="geometry">
            <mxPoint x="-474" y="709" as="sourcePoint" />
          </mxGeometry>
        </mxCell>
        <mxCell id="ORQ5gyo4uyK21jIdF5UX-31" value="return" style="html=1;verticalAlign=bottom;endArrow=open;dashed=1;endSize=8;exitX=0;exitY=0.95;" parent="1" source="ORQ5gyo4uyK21jIdF5UX-29" target="3nuBFxr9cyL0pnOWT2aG-5" edge="1">
          <mxGeometry relative="1" as="geometry">
            <mxPoint x="-474" y="785" as="targetPoint" />
          </mxGeometry>
        </mxCell>
        <mxCell id="ORQ5gyo4uyK21jIdF5UX-33" value="[Tour_finished]" style="text;html=1;strokeColor=none;fillColor=none;align=center;verticalAlign=middle;whiteSpace=wrap;rounded=0;" parent="1" vertex="1">
          <mxGeometry x="-1019" y="709" width="180" height="20" as="geometry" />
        </mxCell>
        <mxCell id="h1YhjfsKzgG1S_CLmp3s-1" value="" style="points=[];perimeter=orthogonalPerimeter;rounded=0;shadow=0;strokeWidth=1;" parent="1" vertex="1">
          <mxGeometry x="-398.5" y="480" width="10" height="40" as="geometry" />
        </mxCell>
        <mxCell id="h1YhjfsKzgG1S_CLmp3s-2" value="CheckPlayedCard(card,pli)" style="verticalAlign=bottom;endArrow=block;shadow=0;strokeWidth=1;entryX=0.05;entryY=0.05;entryDx=0;entryDy=0;entryPerimeter=0;" parent="1" target="h1YhjfsKzgG1S_CLmp3s-1" edge="1">
          <mxGeometry relative="1" as="geometry">
            <mxPoint x="-613" y="482" as="sourcePoint" />
            <mxPoint x="-408" y="482" as="targetPoint" />
          </mxGeometry>
        </mxCell>
        <mxCell id="h1YhjfsKzgG1S_CLmp3s-3" value="return" style="verticalAlign=bottom;endArrow=open;dashed=1;endSize=8;shadow=0;strokeWidth=1;" parent="1" edge="1">
          <mxGeometry relative="1" as="geometry">
            <mxPoint x="-613" y="521" as="targetPoint" />
            <mxPoint x="-400" y="521" as="sourcePoint" />
          </mxGeometry>
        </mxCell>
        <mxCell id="hKKKY72oN7GVn6uNOPe8-2" value=": Api " style="shape=umlLifeline;perimeter=lifelinePerimeter;container=1;collapsible=0;recursiveResize=0;rounded=0;shadow=0;strokeWidth=1;" parent="1" vertex="1">
          <mxGeometry x="-191" y="59" width="100" height="764" as="geometry" />
        </mxCell>
        <mxCell id="OS-lwtIb6nHilkdtzgx4-5" value="" style="points=[];perimeter=orthogonalPerimeter;rounded=0;shadow=0;strokeWidth=1;" vertex="1" parent="hKKKY72oN7GVn6uNOPe8-2">
          <mxGeometry x="45" y="90" width="10" height="40" as="geometry" />
        </mxCell>
        <mxCell id="OS-lwtIb6nHilkdtzgx4-12" value="" style="points=[];perimeter=orthogonalPerimeter;rounded=0;shadow=0;strokeWidth=1;" vertex="1" parent="hKKKY72oN7GVn6uNOPe8-2">
          <mxGeometry x="45" y="170" width="10" height="40" as="geometry" />
        </mxCell>
        <mxCell id="OS-lwtIb6nHilkdtzgx4-6" value="Init_Game()" style="verticalAlign=bottom;endArrow=block;shadow=0;strokeWidth=1;exitX=0.49;exitY=0.151;exitDx=0;exitDy=0;exitPerimeter=0;" edge="1" parent="1">
          <mxGeometry relative="1" as="geometry">
            <mxPoint x="-826" y="140.36400000000003" as="sourcePoint" />
            <mxPoint x="-622" y="141" as="targetPoint" />
          </mxGeometry>
        </mxCell>
        <mxCell id="ORQ5gyo4uyK21jIdF5UX-8" value="opt" style="shape=umlFrame;whiteSpace=wrap;html=1;" parent="1" vertex="1">
          <mxGeometry x="-718" y="545" width="340" height="70" as="geometry" />
        </mxCell>
        <mxCell id="OS-lwtIb6nHilkdtzgx4-4" value="return" style="verticalAlign=bottom;endArrow=open;dashed=1;endSize=8;shadow=0;strokeWidth=1;" edge="1" parent="1">
          <mxGeometry relative="1" as="geometry">
            <mxPoint x="-831" y="355" as="targetPoint" />
            <mxPoint x="-618" y="355" as="sourcePoint" />
          </mxGeometry>
        </mxCell>
        <mxCell id="OS-lwtIb6nHilkdtzgx4-9" value="InitHand()" style="verticalAlign=bottom;endArrow=block;shadow=0;strokeWidth=1;exitX=0.49;exitY=0.151;exitDx=0;exitDy=0;exitPerimeter=0;entryX=0.161;entryY=0.012;entryDx=0;entryDy=0;entryPerimeter=0;" edge="1" parent="1" target="OS-lwtIb6nHilkdtzgx4-2">
          <mxGeometry relative="1" as="geometry">
            <mxPoint x="-615" y="152.00400000000002" as="sourcePoint" />
            <mxPoint x="-399" y="155" as="targetPoint" />
          </mxGeometry>
        </mxCell>
        <mxCell id="OS-lwtIb6nHilkdtzgx4-10" value="Deck.New()" style="verticalAlign=bottom;endArrow=block;shadow=0;strokeWidth=1;exitX=0.49;exitY=0.151;exitDx=0;exitDy=0;exitPerimeter=0;entryX=0.906;entryY=0.049;entryDx=0;entryDy=0;entryPerimeter=0;" edge="1" parent="1" target="OS-lwtIb6nHilkdtzgx4-5">
          <mxGeometry relative="1" as="geometry">
            <mxPoint x="-388.5" y="152.074" as="sourcePoint" />
            <mxPoint x="-172.5" y="150.997" as="targetPoint" />
          </mxGeometry>
        </mxCell>
        <mxCell id="OS-lwtIb6nHilkdtzgx4-11" value="return" style="verticalAlign=bottom;endArrow=open;dashed=1;endSize=8;shadow=0;strokeWidth=1;" edge="1" parent="1" target="OS-lwtIb6nHilkdtzgx4-2">
          <mxGeometry relative="1" as="geometry">
            <mxPoint x="-359" y="189" as="targetPoint" />
            <mxPoint x="-139" y="189" as="sourcePoint" />
          </mxGeometry>
        </mxCell>
        <mxCell id="OS-lwtIb6nHilkdtzgx4-13" value="Deck.Draw()" style="verticalAlign=bottom;endArrow=block;shadow=0;strokeWidth=1;exitX=0.49;exitY=0.151;exitDx=0;exitDy=0;exitPerimeter=0;" edge="1" parent="1">
          <mxGeometry x="0.1659" y="7" relative="1" as="geometry">
            <mxPoint x="-388.5" y="231.11400000000006" as="sourcePoint" />
            <mxPoint x="-144" y="230" as="targetPoint" />
            <mxPoint as="offset" />
          </mxGeometry>
        </mxCell>
        <mxCell id="OS-lwtIb6nHilkdtzgx4-14" value="return" style="verticalAlign=bottom;endArrow=open;dashed=1;endSize=8;shadow=0;strokeWidth=1;" edge="1" parent="1">
          <mxGeometry relative="1" as="geometry">
            <mxPoint x="-391" y="269" as="targetPoint" />
            <mxPoint x="-140.5" y="269" as="sourcePoint" />
          </mxGeometry>
        </mxCell>
        <mxCell id="OS-lwtIb6nHilkdtzgx4-15" value="return" style="verticalAlign=bottom;endArrow=open;dashed=1;endSize=8;shadow=0;strokeWidth=1;" edge="1" parent="1">
          <mxGeometry relative="1" as="geometry">
            <mxPoint x="-617" y="280" as="targetPoint" />
            <mxPoint x="-395.25" y="280" as="sourcePoint" />
          </mxGeometry>
        </mxCell>
        <mxCell id="OS-lwtIb6nHilkdtzgx4-16" value="DisplayHand()" style="verticalAlign=bottom;endArrow=block;shadow=0;strokeWidth=1;exitX=0.49;exitY=0.151;exitDx=0;exitDy=0;exitPerimeter=0;entryX=0.161;entryY=0.012;entryDx=0;entryDy=0;entryPerimeter=0;" edge="1" parent="1">
          <mxGeometry relative="1" as="geometry">
            <mxPoint x="-615.61" y="308.424" as="sourcePoint" />
            <mxPoint x="-398.5000000000001" y="307.0039999999999" as="targetPoint" />
          </mxGeometry>
        </mxCell>
        <mxCell id="OS-lwtIb6nHilkdtzgx4-18" value="return" style="verticalAlign=bottom;endArrow=open;dashed=1;endSize=8;shadow=0;strokeWidth=1;" edge="1" parent="1">
          <mxGeometry relative="1" as="geometry">
            <mxPoint x="-616" y="343" as="targetPoint" />
            <mxPoint x="-394.25" y="343" as="sourcePoint" />
          </mxGeometry>
        </mxCell>
      </root>
    </mxGraphModel>
  </diagram>
</mxfile>
